<svg width="696" height="858" viewBox="0 0 696 858" fill="none" xmlns="http://www.w3.org/2000/svg">
<g id="body">
<g id="housing">
<path id="Subtract" fill-rule="evenodd" clip-rule="evenodd" d="M346.542 96.3049C373.052 96.3049 396.819 74.8146 396.819 48.3049C396.819 21.7953 373.052 0.304932 346.542 0.304932C320.033 0.304932 297.323 21.7953 297.323 48.3049C297.323 74.8146 320.033 96.3049 346.542 96.3049ZM346.542 69.2741C357.036 69.2741 365.542 60.7676 365.542 50.2741C365.542 39.7807 357.036 31.2741 346.542 31.2741C336.049 31.2741 327.542 39.7807 327.542 50.2741C327.542 60.7676 336.049 69.2741 346.542 69.2741Z" fill="url(#paint0_linear_0_1)"/>
<path id="Subtract_2" d="M346.439 69.2872C356.933 69.2872 365.439 60.7806 365.439 50.2872C365.439 39.7938 356.933 31.2872 346.439 31.2872C335.946 31.2872 327.439 39.7938 327.439 50.2872C327.439 60.7806 335.946 69.2872 346.439 69.2872Z" stroke="url(#paint1_linear_0_1)" stroke-width="3"/>
<g id="Subtract_3">
<path d="M346.86 80.7863C363.981 80.7863 377.86 66.9072 377.86 49.7863C377.86 44.0357 376.294 38.6508 373.566 34.0347C558.673 51.9228 695.681 261.654 695.681 495.389C695.681 589.592 634.732 857.62 347.89 857.62C61.0479 857.62 0.0986328 593.598 0.0986328 495.389C0.0986328 262.576 136.028 53.5785 320.025 34.2554C317.376 38.8221 315.86 44.1271 315.86 49.7863C315.86 66.9072 329.739 80.7863 346.86 80.7863Z" fill="url(#paint2_linear_0_1)"/>
<path d="M346.86 80.7863C363.981 80.7863 377.86 66.9072 377.86 49.7863C377.86 44.0357 376.294 38.6508 373.566 34.0347C558.673 51.9228 695.681 261.654 695.681 495.389C695.681 589.592 634.732 857.62 347.89 857.62C61.0479 857.62 0.0986328 593.598 0.0986328 495.389C0.0986328 262.576 136.028 53.5785 320.025 34.2554C317.376 38.8221 315.86 44.1271 315.86 49.7863C315.86 66.9072 329.739 80.7863 346.86 80.7863Z" fill="url(#paint3_linear_0_1)"/>
</g>
</g>
<g id="buttons">
<path id="btnLeftHole" d="M208.403 754.041C208.403 736.639 222.513 722.541 239.903 722.541C257.293 722.541 271.403 736.639 271.403 754.041C271.403 771.444 257.293 785.541 239.903 785.541C222.513 785.541 208.403 771.444 208.403 754.041Z" fill="#73736C" stroke="url(#paint4_linear_0_1)" stroke-width="2"/>
<path id="btnLeft" d="M266.829 752.718C266.829 767.094 255.173 778.718 240.829 778.718C226.486 778.718 214.829 767.094 214.829 752.718C214.829 738.342 226.486 726.718 240.829 726.718C255.173 726.718 266.829 738.342 266.829 752.718Z" fill="url(#paint5_linear_0_1)" stroke="url(#paint6_linear_0_1)" stroke-width="2.5"/>
<path id="btnCenterHole" d="M316.355 780.628C316.355 763.226 330.465 749.128 347.855 749.128C365.245 749.128 379.355 763.226 379.355 780.628C379.355 798.031 365.245 812.128 347.855 812.128C330.465 812.128 316.355 798.031 316.355 780.628Z" fill="#73736C" stroke="url(#paint7_linear_0_1)" stroke-width="2"/>
<path id="btnCenter" d="M374.781 779.306C374.781 793.682 363.124 805.306 348.781 805.306C334.437 805.306 322.781 793.682 322.781 779.306C322.781 764.93 334.437 753.306 348.781 753.306C363.124 753.306 374.781 764.93 374.781 779.306Z" fill="url(#paint8_linear_0_1)" stroke="url(#paint9_linear_0_1)" stroke-width="2.5"/>
<path id="btnRightHole" d="M422.455 754.041C422.455 736.639 436.565 722.541 453.955 722.541C471.345 722.541 485.455 736.639 485.455 754.041C485.455 771.444 471.345 785.541 453.955 785.541C436.565 785.541 422.455 771.444 422.455 754.041Z" fill="#73736C" stroke="url(#paint10_linear_0_1)" stroke-width="2"/>
<path id="btnRight" d="M480.881 752.718C480.881 767.094 469.224 778.718 454.881 778.718C440.537 778.718 428.881 767.094 428.881 752.718C428.881 738.342 440.537 726.718 454.881 726.718C469.224 726.718 480.881 738.342 480.881 752.718Z" fill="url(#paint11_linear_0_1)" stroke="url(#paint12_linear_0_1)" stroke-width="2.5"/>
</g>
<path id="screenFrame" d="M168.349 316.075C168.788 300.302 181.422 287.678 197.196 287.257C231.23 286.349 291.299 285.005 349.004 285.005C406.712 285.005 466.784 286.349 500.818 287.257C516.589 287.679 529.221 300.296 529.662 316.067C530.572 348.611 531.879 404.771 531.879 458.679C531.879 512.6 530.571 568.776 529.661 601.316C529.221 617.076 516.589 629.689 500.828 630.115C467.251 631.023 408.055 632.352 349.004 632.352C289.956 632.352 230.763 631.023 197.185 630.115C181.422 629.689 168.789 617.07 168.349 601.307C167.44 568.674 166.129 512.331 166.129 458.679C166.129 405.04 167.439 348.712 168.349 316.075Z" fill="#595844" stroke="url(#paint13_linear_0_1)" stroke-width="3"/>
<path id="reflector" d="M175.004 318.179C175.004 304.924 185.749 294.179 199.004 294.179H499.004C512.259 294.179 523.004 304.924 523.004 318.179V599.179C523.004 612.433 512.259 623.179 499.004 623.179H199.004C185.749 623.179 175.004 612.433 175.004 599.179V318.179Z" fill="#FFFBC6" stroke="url(#paint14_linear_0_1)" stroke-width="6"/>
<g id="layout" opacity="0.5">
<rect id="Rectangle 1" x="173.004" y="368.261" width="352" height="178.799" fill="#B9E3F9"/>
<g id="Vector">
<path d="M359.102 445.388C345.249 441.747 332.008 438.672 318.758 435.897C326.294 428.827 333.737 420.021 341.563 410.176C353.1 411.964 364.643 413.447 376.615 415.293C370.959 424.998 365.281 435.655 359.102 445.388Z" fill="#F7C8DC"/>
<path d="M173.004 398.835V368.274C179.213 382.398 189.006 392.846 201.588 400.961C217.65 394.312 229.084 389.307 244.346 378.458C239.681 375.389 235.102 372.009 230.613 368.274H257.674C252.844 372.19 248.456 375.536 244.346 378.458C257.587 387.168 271.52 393.365 286.033 398.042C289.876 391.564 292.835 385.43 295.689 380.033C289.567 376.695 283.821 372.813 278.513 368.274L303.085 368.27C300.389 371.523 298.076 375.521 295.689 380.033C311.944 388.895 330.857 393.925 351.285 397.239C357.424 388.616 363.649 379.002 369.959 368.261C379.128 373.719 388.862 377.504 399.165 380.276C394.316 386.787 389.708 393.922 385.157 401.405C373.55 400.291 362.201 399.01 351.285 397.239C348.02 401.824 344.779 406.13 341.563 410.176C322.321 407.193 303.745 403.749 286.033 398.042C281.04 406.46 274.555 415.458 264.867 424.174C240.078 418.453 218.356 411.778 201.588 400.961C196.406 403.106 190.744 405.422 184.316 408.16C180.56 405.209 176.79 402.105 173.004 398.835Z" fill="#F7C8DC"/>
<path d="M301.361 503.779C306.977 500.873 312.215 497.517 317.13 493.796C327.062 497.98 336.641 502.804 346.5 508.175C333.745 515.382 322.67 519.945 311.467 524.687C324.15 531.427 336.127 538.798 346.762 547.06H269.144H261.952H204.007C200.146 542.315 194.523 537.709 189.122 533.868C201.93 525.419 212.739 521.595 222.907 519.709C231.899 529.101 242.985 538.659 261.952 547.06H269.144C284.218 536.418 297.659 530.532 311.467 524.687C302.544 519.945 293.271 515.516 283.872 511.311C289.307 509.459 295.101 507.019 301.361 503.779Z" fill="#F7C8DC"/>
<path d="M173.004 481.602V512.127C180.739 504.167 189.052 498.693 197.48 494.222C191.146 489.463 183.271 484.984 173.004 481.602Z" fill="#F7C8DC"/>
<path d="M173.004 479.671V462.201C177.623 465.063 182.681 467.84 188.093 470.565C197.779 465 205.959 460.839 213.73 456.85C227.41 462.556 242.412 467.095 257.873 472.158C244.556 476.979 231.647 480.623 219.538 484.685C208.269 480.012 197.632 475.368 188.093 470.565C183.45 473.232 178.46 476.223 173.004 479.671Z" fill="#F7C8DC"/>
<path d="M525.004 541.618V526.218C525.004 526.218 520.397 526.727 513.924 529.558C517.667 533.409 521.362 537.427 525.004 541.618Z" fill="#F7C8DC"/>
<path d="M459.268 537.135C456.435 540.011 452.785 543.444 449.544 547.06H400.691C396.954 543.48 393.166 540.084 389.337 536.858C397.898 524.148 406.461 515.964 415.73 510.177C429.664 517.703 444.569 526.373 459.268 537.135Z" fill="#F7C8DC"/>
<path d="M335.335 477.013C329.76 483.133 323.737 488.795 317.13 493.796C296.935 485.289 277.002 478.422 257.873 472.158C266.493 469.037 275.374 465.444 284.502 460.583C269.498 455.421 254.579 449.694 239.603 442.513C230.481 448.204 222.357 452.421 213.73 456.85C198.534 450.511 184.737 443.195 173.004 433.608V413.088C177.036 411.291 180.791 409.662 184.316 408.16C203.001 422.844 221.344 433.759 239.603 442.513C244.733 439.312 250.18 435.645 256.209 431.212C259.355 428.898 262.23 426.546 264.867 424.174C281.552 428.024 299.867 431.94 318.758 435.897C306.991 446.935 295.565 454.691 284.502 460.583C301.274 466.353 318.153 471.416 335.335 477.013Z" fill="#F7C8DC"/>
<path d="M283.872 511.311C259.532 519.604 242.398 516.095 222.907 519.709C214.15 510.563 207.608 501.833 197.48 494.222C204.66 490.413 211.862 487.26 219.538 484.685C239.84 493.102 262.193 501.612 283.872 511.311Z" fill="#F7C8DC"/>
<path d="M525.004 368.274V382.213C510.195 380.819 493.428 381.674 477.536 378.633C473.538 382.351 469.715 386.093 466.038 389.845C441.566 387.239 419.282 385.689 399.165 380.276C402.37 375.974 406.175 372.136 409.885 368.267L451.415 368.274C459.466 373.818 468.355 376.876 477.536 378.633C481.346 375.09 485.156 371.46 489.279 368.274L525.004 368.274Z" fill="#F7C8DC"/>
<path d="M173.004 523.845C173.004 523.845 180.799 527.948 189.122 533.868C183.576 537.527 177.77 541.522 173.004 546.156V523.845Z" fill="#F7C8DC"/>
<path d="M525.004 399.614V416.081C521.818 418.56 518.638 420.908 515.457 423.15C518.673 424.386 521.857 425.707 525.004 427.121V471.512V505.377C512.902 509.422 503.712 510.55 495.438 512.799C501.515 518.051 508.064 523.528 513.924 529.558C507.397 532.412 498.972 537.626 491.456 547.06H471.363C467.085 543.659 463.474 540.215 459.268 537.135C475.724 520.425 484.688 515.721 495.438 512.799C486.599 505.158 477.381 498.206 468.188 492.032C483.943 487.804 502.992 482.093 525.004 471.512C510.193 460.392 494.646 452.034 479.972 444.982C465.096 453.327 450.434 461.258 434.226 471.671C424.935 467.124 415.359 462.926 405.994 459.341C415.296 448.961 423.956 438.226 433.274 426.933C448.92 431.26 464 437.308 479.972 444.982C491.745 438.378 503.991 431.233 515.457 423.15C494.463 415.082 472.1 410.655 449.536 407.708C454.751 401.759 460.212 395.789 466.038 389.845C484.452 391.806 504.104 394.364 525.004 399.614Z" fill="#F7C8DC"/>
<path d="M347.831 547.06H383.027C385.137 543.366 387.237 539.976 389.337 536.858C383.244 531.724 377.082 527.354 370.805 523.02C363.417 530.352 355.743 538.098 347.831 547.06Z" fill="#F7C8DC"/>
<path d="M385.157 401.405C382.38 405.972 379.391 410.528 376.615 415.293C395.012 418.129 414.106 421.633 433.274 426.933C438.507 420.592 443.877 414.163 449.536 407.708C427.919 404.883 406.117 403.416 385.157 401.405Z" fill="#F7C8DC"/>
<path d="M373.223 490.485C360.384 485.401 347.78 481.067 335.335 477.013C344.282 467.194 351.904 456.727 359.102 445.388C374.443 449.42 390.424 453.38 405.994 459.341C395.986 470.508 385.272 481.22 373.223 490.485C380.56 493.391 387.974 496.542 395.479 500.026C409.1 488.552 422.188 479.405 434.226 471.671C446.088 477.476 456.663 484.292 468.188 492.032C446.671 497.806 430.657 500.858 415.73 510.177C408.901 506.488 402.154 503.126 395.479 500.026C387.54 506.714 379.357 514.533 370.805 523.02C362.94 517.589 354.546 512.558 346.5 508.175C355.702 502.976 364.856 496.919 373.223 490.485Z" fill="#F7C8DC"/>
</g>
<path id="Vector 1" d="M183.375 338.303C181.906 333.429 189.428 326.651 193.722 325.377C198.017 324.103 205.598 327.303 206.539 324.888C207.479 322.473 198.845 321.139 196.17 317.145C193.496 313.151 193.307 308.087 195.604 305.525C197.901 302.962 203.929 303.36 206.539 305.525C209.148 307.69 210.485 312.58 214.261 312.58C218.036 312.58 217.356 303.333 220.884 297.361C224.411 291.388 229.993 288.745 237.227 290.491C244.462 292.238 245.014 300.914 244.07 305.525C243.126 310.135 236.981 318.504 238.874 320.025C240.767 321.546 245.376 317.134 253.689 317.588C262.003 318.041 266.525 319.688 266.623 325.63C266.722 331.572 262.79 334.751 256.041 335.256C249.292 335.762 240.536 331.466 239.43 333.61C238.323 335.753 244.155 336.768 248.045 343.177C251.936 349.585 245.722 354.231 243.225 355.606C240.727 356.98 231.643 358.062 228.997 350.488C226.351 342.913 227.16 341.19 224.411 340.983C221.663 340.777 220.238 347.629 218.193 354.231C216.148 360.833 208.126 362.79 204.187 360.358C200.249 357.926 199.952 350.998 201.483 348.294C203.013 345.591 208.047 340.983 206.539 339.034C205.031 337.084 197.665 342.25 193.722 342.567C189.78 342.885 184.844 343.177 183.375 338.303Z" fill="#F7C8DC"/>
<path id="Vector 6" d="M370.602 328.626C370.039 332.952 354.297 329.848 351.205 333.77C348.112 337.691 356.718 354.962 363.66 350.541C370.602 346.12 377.067 337.279 379.972 338.972C382.877 340.665 377.036 343.513 378.43 354.518C379.825 365.523 398.656 361.357 398.432 355.244C398.207 349.131 384.282 342.17 391.31 340.665C398.338 339.16 408.212 352.41 414.847 352.98C421.483 353.551 423.544 341.135 417.581 335.142C411.619 329.149 399.181 328.626 399.275 327.121C399.369 325.616 413.237 327.497 418.203 319.502C423.169 311.507 414.268 300.032 406.303 302.196C398.338 304.359 395.714 318.844 392.975 317.608C390.236 316.373 394.799 306.606 393.465 298.904C392.132 291.201 376.411 288.651 373.988 293.519C371.566 298.387 383.626 316.868 379.305 318.371C374.983 319.873 373.413 302.196 365.448 302.196C357.483 302.196 354.315 310.713 356.977 316.236C359.638 321.759 371.164 324.299 370.602 328.626Z" fill="#F7C8DC"/>
<path id="Vector 7" d="M273.998 583.711C267.403 584.067 269.475 605.947 276.281 605.188C283.087 604.428 291.551 598.258 295.099 600.483C298.648 602.708 289.248 605.277 286.814 615.389C284.38 625.502 302.399 629.64 304.197 622.615C305.995 615.591 299.24 606.269 304.197 606.568C309.154 606.868 315.32 624.314 320.696 628.1C326.072 631.887 333.157 619.034 330.346 610.48C327.534 601.927 318.452 599.851 318.663 597.981C318.874 596.112 335.612 601.861 340.952 595.446C346.292 589.032 346.015 576.715 336.497 576.426C326.979 576.138 319.31 588.743 317.677 586.012C316.043 583.28 327.349 572.77 327.441 566.13C327.534 559.49 316.815 551.022 311.917 556.122C307.02 561.222 310.624 578.543 305.172 580.372C299.72 582.2 310.401 562.881 300.459 559.202C290.517 555.522 286.814 567.958 286.814 570.845C286.814 573.732 294.259 582.318 292.697 586.53C291.134 590.742 280.592 583.355 273.998 583.711Z" fill="#F7C8DC"/>
<path id="Vector 8" d="M460.714 575.168C458.675 575.146 454.351 561.241 444.183 558.468C434.015 555.696 428.195 567.012 433.106 572.638C438.017 578.263 449.365 581.551 448.972 584.195C448.578 586.838 435.524 582.712 430.511 586.439C425.498 590.167 425.169 603.779 435.853 604.142C446.537 604.505 449.138 596.283 453.253 599.491C457.368 602.7 450.881 605.783 446.537 614.493C442.193 623.204 455.827 630.496 462.485 623.204C469.143 615.911 464.661 609.745 468.821 610.593C472.982 611.441 474.489 623.784 481.443 625.138C488.396 626.492 491.657 622.663 491.217 613.532C490.777 604.401 478.011 600.709 481.443 599.491C484.875 598.273 489.577 603.603 498.564 601.088C507.551 598.573 506.698 587.612 499.745 586.967C492.791 586.323 485.744 588.291 485.116 584.711C484.488 581.131 493.906 576.393 494.169 565.11C494.431 553.826 479.868 552.601 473.095 556.735C466.321 560.87 462.752 575.19 460.714 575.168Z" fill="#F7C8DC"/>
<path id="Vector 2" d="M272.972 312.143C272.972 339.608 298.187 324.507 300.932 352.277C304.481 335.688 341.578 356.476 344.488 323.492C345.632 310.521 332.238 307.457 325.394 307.31C314.832 307.085 308.677 315.176 308.677 315.176C308.677 315.176 307.76 316.853 306.256 316.585C304.752 316.318 304.481 314.205 304.481 314.205C302.608 289.483 272.972 284.677 272.972 312.143Z" fill="#B9E3F9"/>
<path id="Vector 5" d="M354.306 597.123C363.646 630.132 381.64 595.372 395.376 624.069C394.689 602.378 425.728 606.958 425.728 574.57C425.728 556.165 411.309 556.704 404.853 558.995C394.192 562.777 388.078 581.018 388.078 581.018C388.078 581.018 387.568 582.94 385.789 582.94C384.01 582.94 383.499 581.018 383.499 581.018C378.877 563.594 344.965 564.114 354.306 597.123Z" fill="#B9E3F9"/>
<path id="Vector 3" d="M427.107 312.015C427.107 330.764 442.603 329.754 440.812 353.224C455.739 339.091 496.339 357.978 499.427 322.243C500.642 308.191 488.097 301.252 480.831 301.094C469.982 300.857 463.686 309.153 463.686 309.153C463.686 309.153 461.733 310.97 460.137 310.68C458.54 310.39 458.253 308.101 458.253 308.101C456.264 281.318 427.107 293.266 427.107 312.015Z" fill="#B9E3F9"/>
<path id="Vector 4" d="M263.858 586.787C263.858 607.205 232.56 607.308 230.851 624.069C224.979 605.56 190.108 606.994 190.108 583.877C190.108 560.76 209.444 562.191 216.538 565.842C223.632 569.493 228.14 575.876 228.14 575.876C228.14 575.876 230.099 577.855 231.701 577.539C233.303 577.223 233.93 575.004 233.93 575.004C240.793 558.749 263.857 566.368 263.858 586.787Z" fill="#B9E3F9"/>
</g>
<path id="Vector 9" d="M4.17963 514.462L46.1221 510.517L109.084 500.702L157.734 375.05L167.384 272.118L240.83 280.984L299.483 249.753L422.706 280.984L468.953 256.198L550.971 309.46L536.656 388.266L583.381 485.053L652.991 493.182L692.389 495.988" stroke="url(#paint15_linear_0_1)" stroke-width="6" stroke-linecap="round"/>
<path id="Vector 10" d="M4.80254 522.768L46.745 519.03L109.192 509.063L153.504 577.318L147.072 624.49L215.327 668.802L280.009 654.865L338.973 693.102L415.075 654.555L512.649 668.802L557.676 529.79L583.405 493.339L649.517 501.201L692.212 504.191" stroke="white" stroke-opacity="0.98" stroke-width="6" stroke-linecap="round"/>
</g>
<defs>
<linearGradient id="paint0_linear_0_1" x1="347.071" y1="0.304932" x2="347.071" y2="96.3049" gradientUnits="userSpaceOnUse">
<stop stop-color="white"/>
<stop offset="0.589656" stop-color="#F6F6F6"/>
<stop offset="1" stop-color="#DEDEDE"/>
</linearGradient>
<linearGradient id="paint1_linear_0_1" x1="346.439" y1="29.2141" x2="346.439" y2="71.117" gradientUnits="userSpaceOnUse">
<stop stop-color="#F3F3F3"/>
<stop offset="0.0001" stop-color="#E6E6E6"/>
<stop offset="1" stop-color="#FCFCFC"/>
</linearGradient>
<linearGradient id="paint2_linear_0_1" x1="347.89" y1="32.8002" x2="347.89" y2="857.62" gradientUnits="userSpaceOnUse">
<stop stop-color="white" stop-opacity="0"/>
<stop offset="0.00710607" stop-color="white"/>
<stop offset="0.54" stop-color="white"/>
<stop offset="1" stop-color="#D7D7D7"/>
</linearGradient>
<linearGradient id="paint3_linear_0_1" x1="0.0986331" y1="452.092" x2="695.682" y2="445.218" gradientUnits="userSpaceOnUse">
<stop stop-opacity="0.1"/>
<stop offset="0.224836" stop-color="white" stop-opacity="0"/>
<stop offset="0.76" stop-color="white" stop-opacity="0"/>
<stop offset="1" stop-opacity="0.1"/>
</linearGradient>
<linearGradient id="paint4_linear_0_1" x1="239.903" y1="786.265" x2="239.903" y2="721.818" gradientUnits="userSpaceOnUse">
<stop stop-color="#F8F8F8"/>
<stop offset="0.705" stop-color="#B3B3B3"/>
</linearGradient>
<linearGradient id="paint5_linear_0_1" x1="240.829" y1="726.718" x2="240.829" y2="778.718" gradientUnits="userSpaceOnUse">
<stop stop-color="#656565"/>
<stop offset="0.514439" stop-color="#3A3A3A"/>
<stop offset="1" stop-color="#161616"/>
</linearGradient>
<linearGradient id="paint6_linear_0_1" x1="240.829" y1="724.85" x2="240.829" y2="780.587" gradientUnits="userSpaceOnUse">
<stop offset="0.05" stop-color="#818181"/>
<stop offset="1"/>
</linearGradient>
<linearGradient id="paint7_linear_0_1" x1="347.855" y1="812.852" x2="347.855" y2="748.405" gradientUnits="userSpaceOnUse">
<stop stop-color="#F8F8F8"/>
<stop offset="0.705" stop-color="#B3B3B3"/>
</linearGradient>
<linearGradient id="paint8_linear_0_1" x1="348.781" y1="753.306" x2="348.781" y2="805.306" gradientUnits="userSpaceOnUse">
<stop stop-color="#656565"/>
<stop offset="0.514439" stop-color="#3A3A3A"/>
<stop offset="1" stop-color="#161616"/>
</linearGradient>
<linearGradient id="paint9_linear_0_1" x1="348.781" y1="751.437" x2="348.781" y2="807.174" gradientUnits="userSpaceOnUse">
<stop offset="0.05" stop-color="#818181"/>
<stop offset="1"/>
</linearGradient>
<linearGradient id="paint10_linear_0_1" x1="453.955" y1="786.265" x2="453.955" y2="721.818" gradientUnits="userSpaceOnUse">
<stop stop-color="#F8F8F8"/>
<stop offset="0.705" stop-color="#B3B3B3"/>
</linearGradient>
<linearGradient id="paint11_linear_0_1" x1="454.881" y1="726.718" x2="454.881" y2="778.718" gradientUnits="userSpaceOnUse">
<stop stop-color="#656565"/>
<stop offset="0.514439" stop-color="#3A3A3A"/>
<stop offset="1" stop-color="#161616"/>
</linearGradient>
<linearGradient id="paint12_linear_0_1" x1="454.881" y1="724.85" x2="454.881" y2="780.587" gradientUnits="userSpaceOnUse">
<stop offset="0.05" stop-color="#818181"/>
<stop offset="1"/>
</linearGradient>
<linearGradient id="paint13_linear_0_1" x1="349.004" y1="285.005" x2="349.004" y2="632.352" gradientUnits="userSpaceOnUse">
<stop stop-color="#D5D5D5"/>
<stop offset="1" stop-color="#E8E8E8"/>
</linearGradient>
<linearGradient id="paint14_linear_0_1" x1="349.004" y1="294.179" x2="349.004" y2="623.179" gradientUnits="userSpaceOnUse">
<stop stop-color="#D4D1A3"/>
<stop offset="0.055" stop-color="#E4E0B0"/>
<stop offset="1" stop-color="#E4E0B0"/>
</linearGradient>
<linearGradient id="paint15_linear_0_1" x1="339.25" y1="241.151" x2="348.979" y2="514.592" gradientUnits="userSpaceOnUse">
<stop stop-opacity="0.38"/>
<stop offset="0.346798" stop-opacity="0.0608328"/>
<stop offset="0.546239" stop-opacity="0.1"/>
<stop offset="0.904842" stop-opacity="0.06"/>
<stop offset="1" stop-opacity="0.43"/>
</linearGradient>
</defs>
</svg>
